<mxfile host="app.diagrams.net" modified="2023-07-18T10:05:51.072Z" agent="Mozilla/5.0 (Windows NT 10.0; Win64; x64; rv:109.0) Gecko/20100101 Firefox/114.0" etag="YyMRpaJtNMDVniTPQg8W" version="21.6.2">
  <diagram name="Page-1" id="jT81VOFueob0oWWeU9Mt">
    <mxGraphModel dx="1728" dy="960" grid="1" gridSize="10" guides="1" tooltips="1" connect="1" arrows="1" fold="1" page="1" pageScale="1" pageWidth="1100" pageHeight="850" math="0" shadow="0">
      <root>
        <mxCell id="0" />
        <mxCell id="1" parent="0" />
        <mxCell id="Kx07bvd-4rYV5RhQG2fd-22" value="L3 Cache" style="rounded=1;whiteSpace=wrap;html=1;" parent="1" vertex="1">
          <mxGeometry x="337.5" y="270" width="345" height="60" as="geometry" />
        </mxCell>
        <mxCell id="Kx07bvd-4rYV5RhQG2fd-23" value="Memory (RAM)" style="rounded=1;whiteSpace=wrap;html=1;" parent="1" vertex="1">
          <mxGeometry x="280" y="380" width="460" height="60" as="geometry" />
        </mxCell>
        <mxCell id="Kx07bvd-4rYV5RhQG2fd-24" value="Storage (HDD, SSD, NVMe)" style="rounded=1;whiteSpace=wrap;html=1;" parent="1" vertex="1">
          <mxGeometry x="210" y="490" width="600" height="60" as="geometry" />
        </mxCell>
        <mxCell id="Kx07bvd-4rYV5RhQG2fd-25" value="&lt;font style=&quot;font-size: 24px;&quot;&gt;Faster/Smaller&lt;/font&gt;" style="text;html=1;strokeColor=none;fillColor=none;align=center;verticalAlign=middle;whiteSpace=wrap;rounded=0;" parent="1" vertex="1">
          <mxGeometry x="10" y="80" width="190" height="50" as="geometry" />
        </mxCell>
        <mxCell id="Kx07bvd-4rYV5RhQG2fd-26" value="&lt;font style=&quot;font-size: 24px;&quot;&gt;Slower/Larger&lt;/font&gt;" style="text;html=1;strokeColor=none;fillColor=none;align=center;verticalAlign=middle;whiteSpace=wrap;rounded=0;" parent="1" vertex="1">
          <mxGeometry x="10" y="580" width="190" height="50" as="geometry" />
        </mxCell>
        <mxCell id="diblLVswrhK0cE1U2o6_-3" value="" style="shape=flexArrow;endArrow=classic;startArrow=classic;html=1;rounded=0;entryX=0.5;entryY=1;entryDx=0;entryDy=0;exitX=0.25;exitY=0;exitDx=0;exitDy=0;" edge="1" parent="1" source="Kx07bvd-4rYV5RhQG2fd-22" target="diblLVswrhK0cE1U2o6_-22">
          <mxGeometry width="100" height="100" relative="1" as="geometry">
            <mxPoint x="454.5" y="320" as="sourcePoint" />
            <mxPoint x="510" y="220" as="targetPoint" />
          </mxGeometry>
        </mxCell>
        <mxCell id="diblLVswrhK0cE1U2o6_-4" value="" style="shape=flexArrow;endArrow=classic;startArrow=classic;html=1;rounded=0;entryX=0.5;entryY=1;entryDx=0;entryDy=0;exitX=0.5;exitY=0;exitDx=0;exitDy=0;" edge="1" parent="1" source="Kx07bvd-4rYV5RhQG2fd-23" target="Kx07bvd-4rYV5RhQG2fd-22">
          <mxGeometry width="100" height="100" relative="1" as="geometry">
            <mxPoint x="519.5" y="280" as="sourcePoint" />
            <mxPoint x="519.5" y="230" as="targetPoint" />
          </mxGeometry>
        </mxCell>
        <mxCell id="diblLVswrhK0cE1U2o6_-5" value="" style="shape=flexArrow;endArrow=classic;startArrow=classic;html=1;rounded=0;entryX=0.5;entryY=1;entryDx=0;entryDy=0;" edge="1" parent="1" source="Kx07bvd-4rYV5RhQG2fd-24" target="Kx07bvd-4rYV5RhQG2fd-23">
          <mxGeometry width="100" height="100" relative="1" as="geometry">
            <mxPoint x="520.5" y="390" as="sourcePoint" />
            <mxPoint x="520.5" y="340" as="targetPoint" />
          </mxGeometry>
        </mxCell>
        <mxCell id="diblLVswrhK0cE1U2o6_-6" value="" style="shape=flexArrow;endArrow=classic;startArrow=classic;html=1;rounded=0;entryX=0.5;entryY=1;entryDx=0;entryDy=0;" edge="1" parent="1" source="Kx07bvd-4rYV5RhQG2fd-26" target="Kx07bvd-4rYV5RhQG2fd-25">
          <mxGeometry width="100" height="100" relative="1" as="geometry">
            <mxPoint x="110" y="370" as="sourcePoint" />
            <mxPoint x="210" y="270" as="targetPoint" />
          </mxGeometry>
        </mxCell>
        <mxCell id="diblLVswrhK0cE1U2o6_-7" value="&lt;font style=&quot;font-size: 30px;&quot;&gt;8-Core CPU Hierarchy&lt;br&gt;&lt;/font&gt;" style="text;html=1;strokeColor=none;fillColor=none;align=center;verticalAlign=middle;whiteSpace=wrap;rounded=0;" vertex="1" parent="1">
          <mxGeometry x="10" y="10" width="310" height="60" as="geometry" />
        </mxCell>
        <mxCell id="diblLVswrhK0cE1U2o6_-22" value="&lt;font style=&quot;font-size: 24px;&quot;&gt;CPU 2 &amp;amp; 3&lt;br&gt;&lt;/font&gt;" style="whiteSpace=wrap;html=1;aspect=fixed;" vertex="1" parent="1">
          <mxGeometry x="360" y="100" width="120" height="120" as="geometry" />
        </mxCell>
        <mxCell id="diblLVswrhK0cE1U2o6_-23" value="&lt;font style=&quot;font-size: 24px;&quot;&gt;CPU 4 &amp;amp; 5&lt;br&gt;&lt;/font&gt;" style="whiteSpace=wrap;html=1;aspect=fixed;" vertex="1" parent="1">
          <mxGeometry x="540" y="100" width="120" height="120" as="geometry" />
        </mxCell>
        <mxCell id="diblLVswrhK0cE1U2o6_-24" value="" style="shape=flexArrow;endArrow=classic;startArrow=classic;html=1;rounded=0;exitX=0.75;exitY=0;exitDx=0;exitDy=0;entryX=0.5;entryY=1;entryDx=0;entryDy=0;" edge="1" parent="1" source="Kx07bvd-4rYV5RhQG2fd-22" target="diblLVswrhK0cE1U2o6_-23">
          <mxGeometry width="100" height="100" relative="1" as="geometry">
            <mxPoint x="654" y="270" as="sourcePoint" />
            <mxPoint x="610" y="220" as="targetPoint" />
          </mxGeometry>
        </mxCell>
        <mxCell id="diblLVswrhK0cE1U2o6_-25" value="&lt;font style=&quot;font-size: 24px;&quot;&gt;CPU 0 &amp;amp; 1&lt;/font&gt;" style="whiteSpace=wrap;html=1;aspect=fixed;" vertex="1" parent="1">
          <mxGeometry x="160" y="240" width="120" height="120" as="geometry" />
        </mxCell>
        <mxCell id="diblLVswrhK0cE1U2o6_-26" value="&lt;font style=&quot;font-size: 24px;&quot;&gt;CPU 6 &amp;amp; 7&lt;br&gt;&lt;/font&gt;" style="whiteSpace=wrap;html=1;aspect=fixed;" vertex="1" parent="1">
          <mxGeometry x="740" y="240" width="120" height="120" as="geometry" />
        </mxCell>
        <mxCell id="diblLVswrhK0cE1U2o6_-27" value="" style="shape=flexArrow;endArrow=classic;startArrow=classic;html=1;rounded=0;entryX=1;entryY=0.5;entryDx=0;entryDy=0;exitX=0;exitY=0.5;exitDx=0;exitDy=0;" edge="1" parent="1" source="Kx07bvd-4rYV5RhQG2fd-22" target="diblLVswrhK0cE1U2o6_-25">
          <mxGeometry width="100" height="100" relative="1" as="geometry">
            <mxPoint x="434" y="280" as="sourcePoint" />
            <mxPoint x="430" y="230" as="targetPoint" />
          </mxGeometry>
        </mxCell>
        <mxCell id="diblLVswrhK0cE1U2o6_-28" value="" style="shape=flexArrow;endArrow=classic;startArrow=classic;html=1;rounded=0;entryX=1;entryY=0.5;entryDx=0;entryDy=0;exitX=0;exitY=0.5;exitDx=0;exitDy=0;" edge="1" parent="1" source="diblLVswrhK0cE1U2o6_-26" target="Kx07bvd-4rYV5RhQG2fd-22">
          <mxGeometry width="100" height="100" relative="1" as="geometry">
            <mxPoint x="348" y="310" as="sourcePoint" />
            <mxPoint x="290" y="310" as="targetPoint" />
          </mxGeometry>
        </mxCell>
      </root>
    </mxGraphModel>
  </diagram>
</mxfile>
